<svg xmlns="http://www.w3.org/2000/svg" height="1200" width="1600" version="1.1" xmlns:xlink="http://www.w3.org/1999/xlink" xmlns:svgjs="http://svgjs.com/svgjs"><rect fill="#f3ebe9" width="1600" height="1200"></rect><g><path d="M1141.91 271.38H603.39C566.92 271.38 537.43 300.87 537.43 337.34V843.29C537.43 879.76 566.92 909.24 603.39 909.24H1141.91C1178.37 909.24 1207.86 879.76 1207.86 843.29V337.34C1207.86 300.98 1178.26 271.38 1141.91 271.38Z" fill="#231f20" opacity="1" stroke-width="4" stroke="none"></path><path d="M609.07 386.83C624.05 386.83 636.19 374.69 636.19 359.71 636.19 344.74 624.05 332.6 609.07 332.6 594.1 332.6 581.96 344.74 581.96 359.71 581.96 374.69 594.1 386.83 609.07 386.83Z" fill="#3c2c5b" opacity="1" stroke-width="4" stroke="none"></path><path d="M687.81 386.83C702.79 386.83 714.93 374.69 714.93 359.71 714.93 344.74 702.79 332.6 687.81 332.6 672.84 332.6 660.7 344.74 660.7 359.71 660.7 374.69 672.84 386.83 687.81 386.83Z" fill="#3c2c5b" opacity="1" stroke-width="4" stroke="none"></path><path d="M766.67 386.83C781.65 386.83 793.79 374.69 793.79 359.71 793.79 344.74 781.65 332.6 766.67 332.6 751.7 332.6 739.56 344.74 739.56 359.71 739.56 374.69 751.7 386.83 766.67 386.83Z" fill="#3c2c5b" opacity="1" stroke-width="4" stroke="none"></path></g><g><path d="M896.01 692.97H756.09C748.38 692.97 742.1 686.69 742.1 678.98V580.53C742.1 572.83 748.38 566.54 756.09 566.54H793.91C798.88 566.54 803.44 569.18 805.97 573.43L810.33 580.84C812.87 585.09 817.43 587.73 822.4 587.73H896.11C903.82 587.73 910.1 594.02 910.1 601.72V678.98C910.1 686.69 903.82 692.97 896.01 692.97 896.11 692.97 896.11 692.97 896.01 692.97Z" fill="#61ccff" opacity="1" stroke-width="4" stroke="none"></path><path d="M1016.87 485.53H931.8C931.8 485.53 921.96 535.82 951.57 562.48H1036.64C1007.03 535.82 1016.87 485.53 1016.87 485.53Z" fill="#ffc930" opacity="1" stroke-width="4" stroke="none"></path><path d="M897.63 442.03H812.56C812.56 442.03 802.73 492.32 832.33 518.99H917.4C887.69 492.32 897.63 442.03 897.63 442.03Z" fill="#3c2c5b" opacity="1" stroke-width="4" stroke="none"></path></g><g><path d="M801.15 868.86C788.63 868.86 778.43 858.65 778.43 846.14V799.47C778.43 786.95 788.63 776.75 801.15 776.75H945.3C957.81 776.75 968.02 786.95 968.02 799.47V846.14C968.02 858.65 957.81 868.86 945.3 868.86H801.15Z" fill="#ffffff" opacity="0.2" stroke-width="4" stroke="none"></path><path d="M801.15 857.29C788.63 857.29 778.43 847.09 778.43 834.57V787.91C778.43 775.39 788.63 765.19 801.15 765.19H945.3C957.81 765.19 968.02 775.39 968.02 787.91V834.57C968.02 847.09 957.81 857.29 945.3 857.29H801.15Z" fill="#ffffff" opacity="1" stroke-width="4" stroke="none"></path><path d="M815.71 798.86L834.07 790.63V834.23" stroke="#61ccff" stroke-width="4" stroke-linecap="round" stroke-linejoin="round" opacity="1" fill="none"></path><path d="M876.52 806.75C884.07 804.44 892.1 808.65 894.41 816.2 896.73 823.76 892.51 831.78 884.96 834.09 879.31 835.86 873.12 833.89 869.51 829.27" stroke="#61ccff" stroke-width="4" stroke-linecap="round" stroke-linejoin="round" opacity="1" fill="none"></path><path d="M870.13 790.42H891.9L876.25 806.75" stroke="#61ccff" stroke-width="4" stroke-linecap="round" stroke-linejoin="round" opacity="1" fill="none"></path><path d="M917.2 790.15H918.36C925.16 790.15 930.74 795.66 930.74 802.53V822.05C930.74 828.86 925.23 834.44 918.36 834.44H917.2C910.4 834.44 904.82 828.92 904.82 822.05V802.53C904.82 795.66 910.4 790.15 917.2 790.15Z" stroke="#61ccff" stroke-width="4" stroke-linecap="round" stroke-linejoin="round" opacity="1" fill="none"></path><path d="M852.44 804.91V806.95" stroke="#61ccff" stroke-width="4" stroke-linecap="round" stroke-linejoin="round" opacity="1" fill="none"></path><path d="M852.44 817.84V819.88" stroke="#61ccff" stroke-width="4" stroke-linecap="round" stroke-linejoin="round" opacity="1" fill="none"></path></g><g><path d="M1212.68 719.85C1218.18 723 1221.78 728.62 1222.57 734.91 1223.02 739.52 1226.61 743.23 1231.11 743.9L1231.45 744.01C1235.94 744.58 1240.33 741.99 1241.9 737.61 1242.91 735.14 1244.26 732.78 1246.17 730.75 1251.23 725.47 1258.76 723.33 1265.84 725.36 1268.43 726.14 1270.9 727.38 1273.03 729.07 1276.74 731.99 1281.69 731.99 1285.4 729.07L1285.62 728.95C1289.33 726.03 1290.57 721.09 1288.66 716.81 1284.27 706.81 1288.77 694.9 1298.77 690.51 1300.57 689.73 1302.48 689.17 1304.51 688.94 1309.11 688.49 1312.82 684.89 1313.5 680.4L1313.61 680.06C1314.17 675.57 1311.59 671.18 1307.2 669.61 1304.73 668.6 1302.37 667.25 1300.35 665.34 1295.06 660.28 1292.93 652.75 1294.95 645.67 1295.74 643.08 1296.97 640.61 1298.66 638.47 1301.47 634.76 1301.47 629.82 1298.66 626.11 1298.66 626.11 1298.55 626 1298.55 625.89 1295.63 622.18 1290.68 620.94 1286.41 622.85 1276.41 627.23 1264.49 622.85 1260.11 612.74 1259.21 610.94 1258.76 608.91 1258.42 607 1257.97 602.39 1254.38 598.69 1249.88 598.01L1249.54 597.9C1245.05 597.34 1240.66 599.92 1239.09 604.31 1238.08 606.78 1236.73 609.14 1234.82 611.16 1229.76 616.44 1222.23 618.58 1215.15 616.56 1212.56 615.77 1210.09 614.53 1207.96 612.85 1204.25 609.93 1199.3 609.93 1195.59 612.85L1195.37 612.96C1191.66 615.88 1190.53 620.83 1192.45 624.99 1196.83 634.99 1192.45 646.9 1182.33 651.29 1180.53 652.19 1178.51 652.64 1176.6 652.97 1171.99 653.42 1168.28 657.02 1167.61 661.52L1167.49 661.85C1166.93 666.35 1169.52 670.73 1173.9 672.31 1176.37 673.32 1178.73 674.67 1180.76 676.58 1186.15 681.63 1188.29 689.17 1186.26 696.36 1185.48 698.94 1184.24 701.42 1182.55 703.55 1179.63 707.26 1179.63 712.21 1182.55 715.92L1182.67 716.14C1185.59 719.85 1190.42 720.97 1194.69 719.18 1200.43 716.37 1207.06 716.7 1212.68 719.85ZM1219.65 667.02C1223.35 649.38 1244.49 643.64 1256.74 656.79 1261.12 661.63 1262.92 668.26 1261.68 674.67 1257.97 692.31 1236.73 698.04 1224.59 684.89 1220.09 680.06 1218.18 673.43 1219.65 667.02Z" fill="#61ccff" opacity="1" stroke-width="4" stroke="none"></path></g><g><path d="M432.04 386.46C457.52 360.99 457.52 319.68 432.04 294.21 406.56 268.73 365.26 268.73 339.79 294.21 314.3 319.68 314.3 360.99 339.79 386.46 365.26 411.94 406.56 411.94 432.04 386.46Z" fill="#ffffff" opacity="1" stroke-width="4" stroke="none"></path><path d="M349.41 338.52C349.41 338.52 359.01 316.53 386.83 316.53 412.9 316.53 422.5 338.52 422.5 338.52" stroke="#202020" stroke-width="4" stroke-linecap="round" stroke-linejoin="round" opacity="1" fill="none"></path><path d="M365.96 352.96C365.96 352.96 370.04 337.31 386.83 337.31 401.57 337.31 405.87 352.96 405.87 352.96" stroke="#202020" stroke-width="4" stroke-linecap="round" stroke-linejoin="round" opacity="1" fill="none"></path><path d="M379.87 365.43C379.87 365.43 385.92 355.76 391.97 365.43" stroke="#202020" stroke-width="4" stroke-linecap="round" stroke-linejoin="round" opacity="1" fill="none"></path></g><g><path d="M688.83 1005.83L714.57 955.53C715.27 949.56 717.06 941.71 719.45 933.36L721.73 920.04 624.31 918.75 619.74 932.56C617.75 943.2 615.86 956.92 614.57 968.25L617.25 972.33 688.83 1005.83Z" fill="#a15842" opacity="1" stroke-width="4" stroke="none"></path><path d="M783.17 654.41C783.17 654.41 791.52 647.95 784.06 639.8 780.38 636.82 777.6 635.62 772.53 634.73V634.83C762.89 632.94 750.66 632.54 743.11 633.04 743.11 633.04 752.95 619.12 749.37 613.36 745.39 607.09 722.13 622 693 654.51 674.31 675.39 658.41 699.05 642.8 718.73 642.8 718.73 633.55 709.59 622.52 698.75L543.79 760.09C543.79 760.09 588.22 794.78 626.99 802.93 689.62 816.15 741.02 698.05 741.02 698.05 741.02 698.05 747.98 697.76 755.63 696.46 755.63 698.05 756.23 699.55 757.62 700.74 761.6 703.42 773.62 702.83 781.68 696.26 789.73 689.7 782.67 684.43 782.67 684.43 792.71 679.07 785.06 669.52 785.06 669.52 794 658.69 783.17 654.41 783.17 654.41Z" fill="#a15842" opacity="1" stroke-width="4" stroke="none"></path><path d="M642.8 718.83L643.3 742.49" stroke="#282625" stroke-width="4" stroke-linecap="round" opacity="1" fill="none"></path><path d="M643.2 859.4C630.87 887.23 624.11 910.3 619.34 933.46L719.45 933.36C736.25 872.52 777.5 781.46 732.87 743.29 676.3 700.14 520.42 798.16 520.42 798.16 520.42 798.16 437.72 967.76 496.37 969.84 569.34 969.64 643.2 859.4 643.2 859.4Z" fill="#ffc930" opacity="1" stroke-width="4" stroke="none"></path><path d="M573.41 884.65L597.87 911.69C598.46 912.28 599.46 912.38 600.05 911.69 625.3 885.84 642.3 860.89 643.2 859.6 643.2 859.6 643.2 859.5 643.3 859.5L662.38 825C663.18 823.61 661.49 822.22 660.2 823.01L573.71 882.46C573.01 882.86 572.81 883.95 573.41 884.65Z" fill="#fbbd0d" opacity="0.2" stroke-width="4" stroke="none"></path><path d="M747.98 1021.14L610.99 1022.03 611.09 1020.64C611.29 1012.89 611.39 1005.33 611.68 997.98 611.88 994.99 611.98 992.01 612.18 989.13 612.68 981.28 613.47 973.52 614.27 966.17 656.32 967.95 681.87 993.01 681.87 993.01L678.19 970.34C676.9 962.29 683.06 954.93 691.31 954.83H714.77C714.57 955.93 714.47 956.52 714.38 957.62 714.18 959.7 714.08 961.89 714.08 963.88 714.28 999.07 737.54 1003.25 748.08 1020.64L747.98 1021.14Z" fill="#61ccff" opacity="1" stroke-width="4" stroke="none"></path><path d="M750.86 1026.81C752.15 1030.58 753.05 1035.06 753.05 1040.33L611.19 1040.43C610.99 1033.86 610.79 1027.3 610.99 1020.84L748.08 1020.64C749.17 1022.63 750.16 1024.42 750.86 1026.81Z" fill="#231f20" opacity="1" stroke-width="4" stroke="none"></path><path d="M701.85 989.03L717.36 982.47" stroke="#1d4050" stroke-width="4" stroke-linecap="round" stroke-linejoin="round" opacity="1" fill="none"></path><path d="M711.49 1004.44L724.61 994.4" stroke="#1d4050" stroke-width="4" stroke-linecap="round" stroke-linejoin="round" opacity="1" fill="none"></path><path d="M687.73 1020.74L681.97 993.2" stroke="#1d4050" stroke-width="4" stroke-linecap="round" stroke-linejoin="round" opacity="1" fill="none"></path><path d="M536.63 814.96L405.7 826.59C405.7 826.59 383.93 861.09 389.9 896.08 437.52 898.17 459.68 902.24 459.68 902.24L461.18 1002.85C484.24 1009.41 515.16 1021.34 545.77 1030.19 585.04 1041.32 623.71 1046.99 644.89 1028.5 721.73 954.83 536.63 814.96 536.63 814.96Z" fill="#ffc930" opacity="1" stroke-width="4" stroke="none"></path><path d="M405.7 826.59C405.7 826.59 383.93 861.09 389.9 896.08 437.52 898.17 459.68 902.24 459.68 902.24 459.68 902.24 520.52 914.07 564.27 933.66 564.27 933.66 565.46 926.7 539.51 909.9 507.5 889.12 444.67 871.92 415.45 826.49L405.7 826.59Z" fill="#fbbd0d" opacity="0.2" stroke-width="4" stroke="none"></path><path d="M647.27 933.46C633.26 908.61 612.18 884.25 592.2 864.17" stroke="#fbbd0d" stroke-width="4" stroke-linecap="round" stroke-linejoin="round" opacity="1" fill="none"></path><path d="M388.11 973.32L438.81 998.08C444.67 998.67 452.73 1000.36 461.28 1002.85L463.96 1003.64 463.86 903.04 459.68 902.14C449.05 900.36 436.22 899.16 424.69 897.97L420.72 901.05 388.11 973.32Z" fill="#a15842" opacity="1" stroke-width="4" stroke="none"></path><path d="M374.19 1032.87L371.81 895.98C371.81 895.98 399.04 895.48 426.68 898.27 426.68 898.37 426.68 898.47 426.68 898.47 425.49 940.42 401.03 966.26 401.03 966.26L423.6 962.19C431.65 960.7 439.11 966.86 439.31 975.11L439.8 998.27C438.71 998.18 438.21 998.18 437.02 998.08 434.93 997.88 432.74 997.98 430.76 997.98 395.76 998.77 391.59 1021.93 374.49 1032.67 374.19 1032.77 374.19 1032.77 374.19 1032.87Z" fill="#61ccff" opacity="1" stroke-width="4" stroke="none"></path><path d="M368.23 1035.65C364.45 1037.05 359.98 1038.04 354.71 1038.04L352.22 896.38C358.78 896.18 365.54 896.08 372 895.98L374.49 1032.67C372.7 1033.76 370.41 1034.86 368.23 1035.65Z" fill="#231f20" opacity="1" stroke-width="4" stroke="none"></path><path d="M405.01 986.05L411.77 1001.46" stroke="#1d4050" stroke-width="4" stroke-linecap="round" stroke-linejoin="round" opacity="1" fill="none"></path><path d="M389.7 995.79L400.04 1008.91" stroke="#1d4050" stroke-width="4" stroke-linecap="round" stroke-linejoin="round" opacity="1" fill="none"></path><path d="M373.1 972.43L400.63 966.26" stroke="#1d4050" stroke-width="4" stroke-linecap="round" stroke-linejoin="round" opacity="1" fill="none"></path><path d="M459.68 902.24C531.96 916.56 581.46 941.11 581.46 941.11" stroke="#fbbd0d" stroke-width="4" stroke-linecap="round" stroke-linejoin="round" opacity="1" fill="none"></path><path d="M643.2 859.4C643.2 859.4 655.52 835.64 665.37 819.34" stroke="#fbbd0d" stroke-width="4" stroke-linecap="round" stroke-linejoin="round" opacity="1" fill="none"></path><path d="M556.11 805.12H402.92V831.17H556.11V805.12Z" fill="#ffc930" opacity="1" stroke-width="4" stroke="none"></path><path d="M573.81 567.03C572.72 553.21 574.9 530.15 564.56 516.53 551.44 510.17 519.83 504.1 493.29 515.64 469.53 525.87 467.84 545.26 467.84 567.23V636.42L470.12 668.63 536.93 679.07V620.22C536.93 620.22 557.21 625.78 567.94 615.64 581.86 602.82 575.1 580.85 573.81 567.03Z" fill="#a15842" opacity="1" stroke-width="4" stroke="none"></path><path d="M518.04 612.56L536.93 629.66V620.22C536.93 620.22 528.08 617.83 518.24 612.36 518.14 612.26 517.94 612.46 518.04 612.56Z" fill="#282625" opacity="0.2" stroke-width="4" stroke="none"></path><path d="M564.56 516.33C554.13 502.51 518.64 493.27 492.09 504.8 468.33 515.04 467.34 544.46 467.34 566.33L467.64 610.08C473.3 612.16 490.2 608.09 494.28 599.74 494.28 599.74 471.71 575.08 487.42 562.06 501.24 550.53 518.83 573.69 518.83 573.69 518.83 573.69 529.87 571.21 527.28 553.91 535.34 555.2 547.07 553.51 550.55 539.2 559.59 547.65 573.01 545.06 573.01 545.06 572.72 534.42 570.33 523.89 564.56 516.33Z" fill="#30242a" opacity="1" stroke-width="4" stroke="none"></path><path d="M497.96 577.17L506.11 585.12" stroke="#282625" stroke-width="4" stroke-linecap="round" opacity="1" fill="none"></path><path d="M536.93 620.22C527.18 617.73 522.11 615.34 522.11 615.34" stroke="#282625" stroke-width="4" stroke-linecap="round" opacity="1" fill="none"></path><path d="M547.66 591.78C549.45 594.37 552.24 595.86 555.32 596.16" stroke="#282625" stroke-width="4" stroke-linecap="round" opacity="1" fill="none"></path><path d="M625.5 701.33C614.17 690.1 591.9 664.55 561.08 643.78 548.46 635.92 539.41 633.64 536.93 633.04 536.93 633.04 534.24 660.08 507 657.89 480.96 655.8 467.94 627.47 467.94 627.47 452.23 630.26 437.42 636.22 423.8 644.57V644.67C409.88 653.22 382.94 677.87 360.27 711.18L431.35 753.43 412.27 776.19 403.02 837.43H564.27V837.33L563.67 776.29 581.96 764.96 625.5 701.33Z" fill="#61ccff" opacity="1" stroke-width="4" stroke="none"></path><path d="M564.07 738.71L582.16 764.96C582.16 764.96 575.5 768.83 564.07 776.29L563.07 776.69 562.87 777.68 564.07 738.71Z" fill="#3d4041" opacity="0.2" stroke-width="4" stroke="none"></path><path d="M441.69 740.6L399.44 805.12 438.71 826.99 444.38 763.96C445.17 756.11 444.18 748.16 441.69 740.6Z" fill="#3d4041" opacity="0.2" stroke-width="4" stroke="none"></path><path d="M554.13 824.5C553.33 817.25 531.06 806.71 503.43 797.86 474.4 788.72 417.34 779.97 417.34 779.97 417.34 779.97 426.08 766.45 433.04 753.92L360.47 710.88C349.34 727.08 335.62 748.46 328.56 767.94 307.29 827.39 335.92 838.82 363.16 842.4 390.3 845.98 448.75 840.71 448.75 840.71 448.75 840.71 499.85 860.89 513.86 862.08 527.98 863.18 527.78 855.82 527.78 855.82 527.78 855.82 543.39 859.9 543.69 846.67 543.69 846.67 550.05 845.98 551.74 841.31 553.33 836.73 550.55 833.35 548.96 832.26 548.96 832.26 554.72 830.77 554.13 824.5Z" fill="#a15842" opacity="1" stroke-width="4" stroke="none"></path><path d="M417.34 779.97L394.27 784.44" stroke="#282625" stroke-width="4" stroke-linecap="round" opacity="1" fill="none"></path><path d="M433.04 753.92L445.57 735.04" stroke="#3d4041" stroke-width="4" stroke-linecap="round" opacity="1" fill="none"></path><path d="M527.88 855.92L492.49 839.22" stroke="#282625" stroke-width="4" stroke-linecap="round" opacity="1" fill="none"></path><path d="M543.79 846.77C543.79 846.77 517.84 833.15 499.45 826" stroke="#282625" stroke-width="4" stroke-linecap="round" opacity="1" fill="none"></path><path d="M548.96 832.26C548.96 832.26 525.69 819.34 506.41 813.07" stroke="#282625" stroke-width="4" stroke-linecap="round" opacity="1" fill="none"></path><path d="M557.9 576.77C558.6 578.36 559.49 580.95 559 582.44 558.5 583.43 557.9 584.03 556.91 584.43" stroke="#282625" stroke-width="4" stroke-linecap="round" opacity="1" fill="none"></path><path d="M542.3 572.9C544 572.9 545.38 571.51 545.38 569.81 545.38 568.11 544 566.73 542.3 566.73 540.6 566.73 539.21 568.11 539.21 569.81 539.21 571.51 540.6 572.9 542.3 572.9Z" fill="#30242a" opacity="1" stroke-width="4" stroke="none"></path><path d="M566.15 570.11C567.85 570.11 569.24 568.73 569.24 567.03 569.24 565.33 567.85 563.95 566.15 563.95 564.45 563.95 563.07 565.33 563.07 567.03 563.07 568.73 564.45 570.11 566.15 570.11Z" fill="#30242a" opacity="1" stroke-width="4" stroke="none"></path><path d="M563.57 735.23L563.97 777.68" stroke="#3d4041" stroke-width="4" stroke-linecap="round" opacity="1" fill="none"></path><path d="M772.33 642.28C772.33 642.28 759.61 643.18 755.03 648.95 749.47 656.2 754.04 660.18 754.04 660.18 754.04 660.18 748.27 663.76 748.67 669.72 749.57 675.39 756.13 675.49 756.13 675.49 756.13 675.49 750.36 679.56 751.85 685.53 753.05 690.4 758.32 690.6 758.32 690.6 756.72 692.29 755.73 694.28 755.63 696.26" stroke="#282625" stroke-width="4" stroke-linecap="round" opacity="1" fill="none"></path><path d="M754.04 660.08C769.35 659.98 783.17 654.51 783.17 654.51" stroke="#282625" stroke-width="4" stroke-linecap="round" opacity="1" fill="none"></path><path d="M756.13 675.39C771.54 674.69 785.06 669.62 785.06 669.62" stroke="#282625" stroke-width="4" stroke-linecap="round" opacity="1" fill="none"></path><path d="M758.22 690.6C773.52 688.81 782.67 684.53 782.67 684.53" stroke="#282625" stroke-width="4" stroke-linecap="round" opacity="1" fill="none"></path><path d="M743.11 633.04L739.03 638.41C738.53 639.1 738.33 639.9 738.33 640.69 738.83 645.57 740.12 663.46 732.97 673.6" stroke="#282625" stroke-width="4" stroke-linecap="round" opacity="1" fill="none"></path></g><g><path d="M1147.07 477.55C1233.5 477.55 1303.55 407.51 1303.55 321.08 1303.55 234.64 1233.5 164.6 1147.07 164.6 1060.64 164.6 990.59 234.64 990.59 321.08 990.59 407.51 1060.64 477.55 1147.07 477.55Z" fill="#ffc930" opacity="1" stroke-width="4" stroke="none"></path></g><g><path d="M1200.42 250.97C1217.96 250.97 1232.17 236.75 1232.17 219.22 1232.17 201.69 1217.96 187.48 1200.42 187.48 1182.89 187.48 1168.68 201.69 1168.68 219.22 1168.68 236.75 1182.89 250.97 1200.42 250.97Z" fill="#010005" opacity="1" stroke-width="4" stroke="none"></path><path d="M1139.4 319.01C1136.62 319.55 1133.93 319.78 1131.38 319.78 1121.6 319.78 1113.66 315.77 1110.81 309.3 1110.73 309.15 1110.66 308.99 1110.58 308.84 1109.19 305.91 1106.42 299.75 1110.35 277.25 1111.5 270.85 1111.97 265.76 1112.35 261.68 1113.43 250.28 1113.89 245.11 1125.3 234.94 1131.69 229.24 1142.09 230.78 1153.88 230.78 1167.37 230.78 1173.38 232.94 1178.23 239.18 1187.09 250.58 1191.49 252.43 1190.48 273.93 1189.87 286.41 1192.8 314.62 1192.8 314.62 1192.8 314.62 1192.33 324.4 1192.18 326.48L1190.48 331.18 1138.55 332.72 1139.4 319.01Z" fill="#cf5934" opacity="1" stroke-width="4" stroke="none"></path><path d="M1139.4 319.01L1140.25 318.85C1144.95 318.16 1148.88 316.93 1153.42 315.46L1153.88 315.31 1141.25 332.03 1138.55 332.49 1139.4 319.01Z" fill="#030202" opacity="0.2" stroke-width="4" stroke="none"></path><path d="M1192.64 318.32C1192.49 318.32 1174.77 317.85 1168.68 307.14L1168.6 306.99 1168.76 306.91C1168.91 306.83 1187.79 295.28 1181.01 281.71 1179 277.78 1175.54 275.78 1170.76 275.78 1163.59 275.78 1155.89 280.25 1155.81 280.25L1155.66 280.33 1155.58 280.17C1152.81 273.85 1153.81 262.99 1153.96 261.06 1152.65 261.68 1146.56 264.22 1141.4 264.22 1138.32 264.22 1136.16 263.3 1134.85 261.53 1133 258.91 1133.16 254.36 1135.31 248.12 1129.15 252.51 1123.37 253.44 1119.59 253.44 1115.97 253.44 1113.51 252.36 1113.51 252.36 1114.82 246.12 1117.13 241.18 1124.68 234.48 1131.15 228.78 1141.09 225.62 1152.73 225.62 1165.98 225.62 1179 229.63 1185.01 236.02 1196.26 245.27 1195.57 252.66 1194.88 274.16 1194.34 286.41 1192.64 318.32 1192.64 318.32Z" fill="#010005" opacity="1" stroke-width="4" stroke="none"></path><path d="M989.68 456.09C975.81 456.09 965.1 448.23 964.41 447.61L953.08 445.38C953.16 445.07 959.01 413.48 951.54 409.7 946.45 407.16 944.45 403 944.76 400.22 944.99 398.22 946.38 396.83 948.46 396.29 949.23 396.14 950.23 396.06 951.62 396.06 966.02 396.06 1010.49 406.23 1010.95 406.31H1011.1L997.15 455.86H993.15C991.99 456.01 990.84 456.09 989.68 456.09Z" fill="#cf5934" opacity="1" stroke-width="4" stroke="none"></path><path d="M1217.38 489.07C1203.89 489.07 1188.71 486.83 1175.77 482.83H1175.69L1174.15 462.02H1115.59L1114.12 450.77C1112.27 454.01 1098.64 475.2 1069.51 475.89 1068.89 475.89 1068.28 475.89 1067.66 475.89 1050.32 475.89 1030.98 470.42 1017.81 465.87 1003.55 460.94 993.3 455.86 993.15 455.86L993.07 455.78 1004.71 404.69 1064.04 417.02C1064.65 414.63 1072.44 384.43 1087.15 361.62 1096.79 346.67 1113.51 337.42 1136.85 334.03 1137.32 333.96 1137.63 333.88 1137.93 333.88L1138.94 325.4 1192.26 325.56C1192.1 330.18 1191.87 333.19 1191.87 333.88 1192.95 334.03 1200.19 335.04 1209.67 339.43 1219.07 343.82 1232.63 352.6 1243.88 369.4 1265.23 401.38 1275.63 440.83 1268.62 463.25 1261.37 485.75 1233.4 489.07 1217.38 489.07Z" fill="#61ccff" opacity="1" stroke-width="4" stroke="none"></path><path d="M1196.11 436.21L1196.26 435.98C1198.34 432.82 1198.65 427.5 1198.88 422.34 1199.19 415.79 1199.5 409.62 1203.43 407.93L1203.58 407.85 1203.66 408.01 1212.98 435.13 1196.11 436.21Z" fill="#000000" opacity="0.2" stroke-width="4" stroke="none"></path><path d="M1110.58 417.33L1114.28 450.46V450.54C1110.35 457.09 1104.95 462.72 1098.64 466.95L1098.33 467.18 1110.58 417.33Z" fill="#000000" opacity="0.2" stroke-width="4" stroke="none"></path><path d="M1064.04 417.25L1069.28 428.97" stroke="#000000" stroke-width="4" stroke-linecap="round" stroke-linejoin="round" opacity="1" fill="none"></path><path d="M1110.27 411.86L1114.12 450.39" stroke="#000000" stroke-width="4" stroke-linecap="round" stroke-linejoin="round" opacity="1" fill="none"></path><path d="M1205.82 414.94L1212.6 434.9" stroke="#000000" stroke-width="4" stroke-linecap="round" stroke-linejoin="round" opacity="1" fill="none"></path><path d="M958.32 456.71C956.78 456.71 955.7 456.47 954.93 456.01 951.38 453.7 951.62 449.54 951.69 448.69 951 448.54 947.99 447.84 946.45 445.3 945.37 443.53 945.3 441.14 946.22 438.44 945.45 437.83 940.06 433.59 942.91 427.96 942.21 427.42 938.36 424.19 940.6 418.33 941.37 416.25 944.3 413.32 948.61 411.09 953.31 408.7 958.78 407.62 963.25 407.62 964.33 407.62 965.33 407.7 966.26 407.85 969.49 408.31 970.49 409.93 971.26 411.71 972.27 414.17 971.57 416.56 971.03 417.33 971.8 417.64 973.58 419.03 974.27 421.8 974.96 424.73 972.81 427.27 972.04 427.96 973.04 428.73 976.04 430.2 975.19 433.05 975.12 436.21 970.96 440.52 965.79 442.91 966.64 442.76 967.8 442.53 969.18 442.53 974.04 442.53 975.12 443.68 975.12 446.69 975.12 449.92 972.34 452.78 969.8 453.93 966.18 455.55 961.63 456.71 958.32 456.71Z" fill="#cf5934" opacity="1" stroke-width="4" stroke="none"></path><path d="M1162.9 485.68C1150.8 485.68 1138.78 483.29 1138.63 483.29 1138.55 483.29 1125.3 485.22 1115.13 485.22 1107.5 485.22 1103.49 484.14 1103.18 481.98 1102.49 476.82 1118.05 473.89 1124.14 472.89 1124.22 472.89 1124.22 472.81 1124.14 472.81 1117.44 472.66 1110.73 472.12 1104.11 471.27 1098.87 470.65 1095.55 469.19 1094.4 466.88 1093.55 465.18 1094.09 463.64 1094.32 463.18 1091.55 461.64 1090.08 459.79 1089.85 457.86 1089.62 455.09 1091.93 452.93 1092.39 452.54 1092.24 451.77 1091.55 446.84 1099.48 443.99 1107.11 441.22 1124.83 439.68 1128.22 439.37 1126.68 438.6 1122.14 436.05 1121.29 433.05 1120.98 432.05 1121.14 431.05 1121.75 430.2 1122.45 429.2 1124.53 428.73 1128.07 428.73 1142.71 428.73 1177.77 436.98 1178.16 437.06H1178.31L1179.08 483.83H1179C1174.77 485.29 1169.37 485.68 1162.9 485.68Z" fill="#cf5934" opacity="1" stroke-width="4" stroke="none"></path><path d="M1178.08 437.29L1222 434.21" stroke="#000000" stroke-width="4" stroke-linecap="round" stroke-linejoin="round" opacity="1" fill="none"></path><path d="M1168.83 289.34L1162.13 293.89" stroke="#030202" stroke-width="4" stroke-linecap="round" stroke-linejoin="round" opacity="1" fill="none"></path><path d="M1127.22 284.41L1126.99 284.18C1126.14 283.49 1125.84 282.25 1126.3 281.25L1126.76 279.4" stroke="#030202" stroke-width="4" stroke-linecap="round" stroke-linejoin="round" opacity="1" fill="none"></path><path d="M1132.23 290.88C1130 293.66 1126.14 293.58 1124.99 292.66" stroke="#030202" stroke-width="4" stroke-linecap="round" stroke-linejoin="round" opacity="1" fill="none"></path><path d="M1137.93 278.09C1139.09 278.09 1140.01 277.16 1140.01 276.01 1140.01 274.86 1139.09 273.93 1137.93 273.93 1136.79 273.93 1135.85 274.86 1135.85 276.01 1135.85 277.16 1136.79 278.09 1137.93 278.09Z" fill="#010005" opacity="1" stroke-width="4" stroke="none"></path><path d="M1119.52 275.32C1120.67 275.32 1121.6 274.39 1121.6 273.24 1121.6 272.09 1120.67 271.16 1119.52 271.16 1118.37 271.16 1117.44 272.09 1117.44 273.24 1117.44 274.39 1118.37 275.32 1119.52 275.32Z" fill="#010005" opacity="1" stroke-width="4" stroke="none"></path><path d="M1138.55 319.16C1146.26 317.62 1151.19 315.31 1151.19 315.31" stroke="#030202" stroke-width="4" stroke-linecap="round" stroke-linejoin="round" opacity="1" fill="none"></path><path d="M1092.55 452.7C1103.49 450.39 1127.61 448.46 1135.16 448.46" stroke="#030202" stroke-width="4" stroke-linecap="round" stroke-linejoin="round" opacity="1" fill="none"></path><path d="M1094.47 463.25L1134.47 459.56" stroke="#030202" stroke-width="4" stroke-linecap="round" stroke-linejoin="round" opacity="1" fill="none"></path><path d="M1128.46 439.21L1141.86 438.83" stroke="#030202" stroke-width="4" stroke-linecap="round" stroke-linejoin="round" opacity="1" fill="none"></path><path d="M942.91 427.96C951.08 422.8 961.25 418.95 970.73 417.41" stroke="#030202" stroke-width="4" stroke-linecap="round" stroke-linejoin="round" opacity="1" fill="none"></path><path d="M946.99 438.21C953.85 433.13 962.56 429.97 971.57 428.04" stroke="#030202" stroke-width="4" stroke-linecap="round" stroke-linejoin="round" opacity="1" fill="none"></path><path d="M952.31 448.08C959.24 443.68 968.72 442.06 968.72 442.06" stroke="#030202" stroke-width="4" stroke-linecap="round" stroke-linejoin="round" opacity="1" fill="none"></path><path d="M1194.34 250.35C1193.03 245.27 1189.79 241.03 1185.01 236.18 1181.62 232.78 1176.61 229.86 1170.45 228.08" stroke="#010005" stroke-width="4" stroke-linecap="round" stroke-linejoin="round" opacity="1" fill="none"></path><path d="M951.54 409.7C951.54 409.7 964.25 407.16 965.18 407.31 968.41 407.78 970.42 409.01 971.19 410.78 972.19 413.25 970.49 416.56 969.95 417.33 970.73 417.64 973.34 418.26 974.04 421.03 974.73 423.96 971.8 427.19 971.03 427.89 971.88 428.43 974.89 430.04 974.81 433.05 975.43 436.75 968.49 441.91 965.72 442.76 966.49 442.68 967.33 441.99 968.18 441.99 973.04 441.99 975.58 443.53 975.58 446.53 975.58 449.77 971.8 452.93 969.26 454.09" stroke="#000000" stroke-width="4" stroke-linecap="round" stroke-linejoin="round" opacity="1" fill="none"></path><path d="M1124.14 472.89L1135.93 472.81" stroke="#030202" stroke-width="4" stroke-linecap="round" stroke-linejoin="round" opacity="1" fill="none"></path></g></svg>